<?xml version="1.0" standalone="no"?><!DOCTYPE svg PUBLIC "-//W3C//DTD SVG 1.1//EN" "http://www.w3.org/Graphics/SVG/1.1/DTD/svg11.dtd"><svg t="1589165361374" class="icon" viewBox="0 0 1024 1024" version="1.1" xmlns="http://www.w3.org/2000/svg" p-id="1985" xmlns:xlink="http://www.w3.org/1999/xlink" width="200" height="200"><defs><style type="text/css"></style></defs><path d="M139.53706667 682.66666667h212.992c-5.8368-42.87146667-9.55733333-88.74666667-10.752-136.53333334H103.76533333c3.9936 48.36693333 16.384 94.37866667 35.7376 136.53333334z m39.7312 68.26666666a409.94133333 409.94133333 0 0 0 238.62613333 159.81226667c-22.016-40.82346667-40.448-95.57333333-53.72586667-159.81226667H179.26826667z m705.19466666-68.26666666c19.3536-42.15466667 31.744-88.1664 35.7376-136.53333334h-237.9776a1244.39893333 1244.39893333 0 0 1-10.752 136.53333334h212.992z m-39.7312 68.26666666H659.79733333c-13.27786667 64.2048-31.70986667 118.9888-53.72586666 159.81226667A409.94133333 409.94133333 0 0 0 844.6976 750.93333333z m-425.84746666-68.26666666h186.23146666c4.84693333-42.15466667 7.91893333-88.1664 8.94293334-136.53333334h-204.11733334c1.024 48.36693333 4.096 94.37866667 8.94293334 136.53333334z m9.9328 68.26666666c18.60266667 103.35573333 48.91306667 170.66666667 83.18293333 170.66666667 34.26986667 0 64.58026667-67.31093333 83.18293333-170.66666667h-166.36586666z m-325.0176-273.06666666h237.9776c1.19466667-47.78666667 4.9152-93.66186667 10.752-136.53333334h-212.992a407.07413333 407.07413333 0 0 0-35.7376 136.53333334z m816.40106666 0a407.07413333 407.07413333 0 0 0-35.7376-136.53333334h-212.992c5.8368 42.87146667 9.55733333 88.74666667 10.752 136.53333334h237.9776zM409.94133333 477.86666667h204.11733334a1471.93173333 1471.93173333 0 0 0-8.94293334-136.53333334h-186.23146666a1471.93173333 1471.93173333 0 0 0-8.94293334 136.53333334zM179.26826667 273.06666667h184.90026666c13.27786667-64.2048 31.70986667-118.9888 53.72586667-159.81226667A409.94133333 409.94133333 0 0 0 179.3024 273.06666667z m665.46346666 0a409.94133333 409.94133333 0 0 0-238.62613333-159.81226667c22.016 40.82346667 40.448 95.57333333 53.72586667 159.81226667h184.90026666zM428.81706667 273.06666667h166.36586666C576.58026667 169.71093333 546.26986667 102.4 512 102.4c-34.26986667 0-64.58026667 67.31093333-83.18293333 170.66666667zM512 989.86666667C248.08106667 989.86666667 34.13333333 775.91893333 34.13333333 512S248.08106667 34.13333333 512 34.13333333s477.86666667 213.94773333 477.86666667 477.86666667-213.94773333 477.86666667-477.86666667 477.86666667z" p-id="1986"></path></svg>