<?xml version="1.0" standalone="no"?><!DOCTYPE svg PUBLIC "-//W3C//DTD SVG 1.1//EN" "http://www.w3.org/Graphics/SVG/1.1/DTD/svg11.dtd"><svg t="1589165614774" class="icon" viewBox="0 0 1024 1024" version="1.1" xmlns="http://www.w3.org/2000/svg" p-id="1401" xmlns:xlink="http://www.w3.org/1999/xlink" width="200" height="200"><defs><style type="text/css"></style></defs><path d="M62.33088 411.83118223c-11.50862222 0-22.82951111-5.44199111-29.90648889-15.60120889-11.49383111-16.49891555-7.43651555-39.19189333 9.06353777-50.68572444l471.07754667-328.16355556a36.41230222 36.41230222 0 0 1 42.67235556 0.75889778l437.06254222 328.16241778c16.08021333 12.07409778 19.32743111 34.89678222 7.25447111 50.97699556s-34.89564445 19.32856889-50.97699556 7.25333333L532.57671111 92.18503112l-449.46773333 313.10848a36.23253333 36.23253333 0 0 1-20.77809778 6.53767111zM896.55864888 920.90595556H643.14595555c-20.10794667 0-36.40888889-16.30094222-36.40888889-36.40888888V630.00462223H460.64981333V884.49706668c0 20.10794667-16.30094222 36.40888889-36.40888889 36.40888888H165.36348444c-20.10794667 0-36.40888889-16.30094222-36.40888889-36.40888888V449.32778668c0-20.10794667 16.30094222-36.40888889 36.40888889-36.40888889s36.40888889 16.30094222 36.40888889 36.40888889V848.08817779h186.05966222V593.59573334c0-20.10794667 16.30094222-36.40888889 36.40888889-36.40888888h218.90503111c20.10794667 0 36.40888889 16.30094222 36.40888889 36.40888888V848.08817779h180.59605334V449.32778668c0-20.10794667 16.30094222-36.40888889 36.40888888-36.40888889s36.40888889 16.30094222 36.40888889 36.40888889V884.49706668c-0.00113778 20.10680889-16.30208 36.40888889-36.41002667 36.40888888z" p-id="1402"></path></svg>