<?xml version="1.0" standalone="no"?><!DOCTYPE svg PUBLIC "-//W3C//DTD SVG 1.1//EN" "http://www.w3.org/Graphics/SVG/1.1/DTD/svg11.dtd"><svg t="1589246362951" class="icon" viewBox="0 0 1031 1024" version="1.1" xmlns="http://www.w3.org/2000/svg" p-id="1538" xmlns:xlink="http://www.w3.org/1999/xlink" width="201.3671875" height="200"><defs><style type="text/css"></style></defs><path d="M881.71478656 970.66657573H149.498195A117.22409344 117.22409344 0 0 1 47.53242125 795.42432167l365.46872531-724.81585031s0-0.91367156 0.73093688-1.27914A115.94495344 115.94495344 0 0 1 515.60649125 10.67160073a116.12768719 116.12768719 0 0 1 101.60030531 58.65773063l0.63957094 1.27914 365.92556063 724.81585031A117.31546125 117.31546125 0 0 1 881.71478656 970.66657573zM459.23294 94.63804011l-365.46872531 724.7244825-0.73093781 1.27914094a65.51026875 65.51026875 0 0 0 56.46491812 98.21971968H881.71478656a65.51026875 65.51026875 0 0 0 56.64765281-98.21971968c0-0.45683625 0-0.82230469-0.63957-1.27914094L571.98004156 94.63804011a65.51026875 65.51026875 0 0 0-112.74710156 0z m-388.95009094 712.66401468z" p-id="1539"></path><path d="M514.78418656 623.47128636A25.85691187 25.85691187 0 0 1 488.83590687 597.52300667v-274.10154469a25.85691187 25.85691187 0 0 1 51.71382469 0v274.10154469a25.85691187 25.85691187 0 0 1-25.765545 25.94827969zM515.60649125 806.20564854a25.94827969 25.94827969 0 0 1-25.85691281-25.94827968v-54.82030875a25.94827969 25.94827969 0 0 1 51.8051925 0v54.82030875a25.94827969 25.94827969 0 0 1-25.94827969 25.94827968z" p-id="1540"></path></svg>